<svg xmlns="http://www.w3.org/2000/svg" viewBox="0 0 72 88"><defs><style>.a{opacity:0.8;}.b{fill:#294a70;}.c{fill:#fff;fill-rule:evenodd;}</style></defs><g class="a" transform="translate(18 -602)"><path class="b" d="M0,0H30A42,42,0,0,1,72,42v4A42,42,0,0,1,30,88H0a0,0,0,0,1,0,0V0A0,0,0,0,1,0,0Z" transform="translate(-18 602)"/><path class="c" d="M28.5,14.25A14.25,14.25,0,1,1,14.25,0,14.25,14.25,0,0,1,28.5,14.25ZM14.881,18.963a.892.892,0,1,1-1.261,1.261L8.276,14.881a.891.891,0,0,1,0-1.261l5.344-5.344a.892.892,0,0,1,1.261,1.261l-3.824,3.823h8.538a.891.891,0,0,1,0,1.781H11.056Z" transform="translate(-3.073 632)"/></g></svg>